<svg xmlns="http://www.w3.org/2000/svg" xmlns:xlink="http://www.w3.org/1999/xlink" width="500" zoomAndPan="magnify" viewBox="0 0 375 374.999991" height="500" preserveAspectRatio="xMidYMid meet" version="1.0"><defs><g/><clipPath id="569f28a194"><path d="M 102.675781 188 L 272.175781 188 L 272.175781 197.390625 L 102.675781 197.390625 Z M 102.675781 188 " clip-rule="nonzero"/></clipPath><clipPath id="1d586adac2"><path d="M 154 125 L 221 125 L 221 197.390625 L 154 197.390625 Z M 154 125 " clip-rule="nonzero"/></clipPath></defs><rect x="-37.5" width="450" fill="#ffffff" y="-37.499999" height="449.999989" fill-opacity="1"/><rect x="-37.5" width="450" fill="#f6e8ee" y="-37.499999" height="449.999989" fill-opacity="1"/><g fill="#073714" fill-opacity="1"><g transform="translate(86.230143, 249.609432)"><g><path d="M 9.53125 -0.15625 L 9.609375 -0.15625 C 9.679688 -0.15625 9.75 -0.1875 9.8125 -0.25 C 9.882812 -0.320312 9.941406 -0.398438 9.984375 -0.484375 C 10.035156 -0.578125 10.070312 -0.675781 10.09375 -0.78125 C 10.125 -0.882812 10.140625 -0.976562 10.140625 -1.0625 L 10.140625 -9.65625 L 5.921875 0.1875 L 1.90625 -9.15625 L 1.90625 -1.0625 C 1.90625 -0.976562 1.914062 -0.882812 1.9375 -0.78125 C 1.96875 -0.675781 2.003906 -0.578125 2.046875 -0.484375 C 2.097656 -0.398438 2.15625 -0.320312 2.21875 -0.25 C 2.289062 -0.1875 2.367188 -0.15625 2.453125 -0.15625 L 2.53125 -0.15625 L 2.53125 0 L 0.75 0 L 0.75 -0.15625 L 0.828125 -0.15625 C 0.910156 -0.15625 0.984375 -0.1875 1.046875 -0.25 C 1.109375 -0.320312 1.160156 -0.398438 1.203125 -0.484375 C 1.253906 -0.578125 1.289062 -0.675781 1.3125 -0.78125 C 1.332031 -0.882812 1.34375 -0.976562 1.34375 -1.0625 L 1.34375 -9.78125 C 1.34375 -9.851562 1.332031 -9.9375 1.3125 -10.03125 C 1.289062 -10.132812 1.253906 -10.226562 1.203125 -10.3125 C 1.160156 -10.394531 1.109375 -10.46875 1.046875 -10.53125 C 0.984375 -10.59375 0.910156 -10.625 0.828125 -10.625 L 0.75 -10.625 L 0.75 -10.78125 L 2.421875 -10.78125 L 6.203125 -1.84375 L 10 -10.78125 L 11.84375 -10.78125 L 11.84375 -10.625 L 11.765625 -10.625 C 11.679688 -10.625 11.601562 -10.59375 11.53125 -10.53125 C 11.46875 -10.46875 11.410156 -10.394531 11.359375 -10.3125 C 11.316406 -10.226562 11.285156 -10.132812 11.265625 -10.03125 C 11.242188 -9.9375 11.234375 -9.851562 11.234375 -9.78125 L 11.234375 -1.0625 C 11.234375 -0.976562 11.242188 -0.882812 11.265625 -0.78125 C 11.285156 -0.675781 11.316406 -0.578125 11.359375 -0.484375 C 11.410156 -0.398438 11.46875 -0.320312 11.53125 -0.25 C 11.601562 -0.1875 11.679688 -0.15625 11.765625 -0.15625 L 11.84375 -0.15625 L 11.84375 0 L 9.53125 0 Z M 9.53125 -0.15625 "/></g></g></g><g fill="#073714" fill-opacity="1"><g transform="translate(102.954829, 249.609432)"><g><path d="M 0.734375 -10.78125 L 3.0625 -10.78125 L 3.0625 -10.625 L 2.96875 -10.625 C 2.882812 -10.625 2.804688 -10.59375 2.734375 -10.53125 C 2.671875 -10.46875 2.613281 -10.394531 2.5625 -10.3125 C 2.519531 -10.226562 2.488281 -10.132812 2.46875 -10.03125 C 2.445312 -9.9375 2.4375 -9.851562 2.4375 -9.78125 L 2.4375 -3.3125 C 2.4375 -2.894531 2.476562 -2.503906 2.5625 -2.140625 C 2.65625 -1.785156 2.800781 -1.472656 3 -1.203125 C 3.207031 -0.941406 3.476562 -0.738281 3.8125 -0.59375 C 4.15625 -0.445312 4.570312 -0.375 5.0625 -0.375 C 5.613281 -0.375 6.050781 -0.460938 6.375 -0.640625 C 6.695312 -0.816406 6.945312 -1.039062 7.125 -1.3125 C 7.300781 -1.59375 7.414062 -1.90625 7.46875 -2.25 C 7.519531 -2.601562 7.546875 -2.945312 7.546875 -3.28125 L 7.546875 -9.78125 C 7.546875 -9.851562 7.535156 -9.9375 7.515625 -10.03125 C 7.492188 -10.132812 7.457031 -10.226562 7.40625 -10.3125 C 7.363281 -10.394531 7.304688 -10.46875 7.234375 -10.53125 C 7.171875 -10.59375 7.101562 -10.625 7.03125 -10.625 L 6.953125 -10.625 L 6.953125 -10.78125 L 8.734375 -10.78125 L 8.734375 -10.625 L 8.640625 -10.625 C 8.554688 -10.625 8.484375 -10.59375 8.421875 -10.53125 C 8.359375 -10.46875 8.300781 -10.394531 8.25 -10.3125 C 8.207031 -10.226562 8.175781 -10.132812 8.15625 -10.03125 C 8.132812 -9.9375 8.125 -9.851562 8.125 -9.78125 L 8.125 -3.328125 C 8.125 -2.617188 8.035156 -2.039062 7.859375 -1.59375 C 7.679688 -1.144531 7.441406 -0.785156 7.140625 -0.515625 C 6.835938 -0.253906 6.476562 -0.078125 6.0625 0.015625 C 5.65625 0.109375 5.222656 0.15625 4.765625 0.15625 C 4.273438 0.15625 3.820312 0.101562 3.40625 0 C 2.988281 -0.09375 2.625 -0.269531 2.3125 -0.53125 C 2.007812 -0.800781 1.769531 -1.160156 1.59375 -1.609375 C 1.425781 -2.054688 1.34375 -2.625 1.34375 -3.3125 L 1.34375 -9.78125 C 1.34375 -9.851562 1.332031 -9.9375 1.3125 -10.03125 C 1.289062 -10.132812 1.253906 -10.226562 1.203125 -10.3125 C 1.148438 -10.394531 1.09375 -10.46875 1.03125 -10.53125 C 0.96875 -10.59375 0.894531 -10.625 0.8125 -10.625 L 0.734375 -10.625 Z M 0.734375 -10.78125 "/></g></g></g><g fill="#073714" fill-opacity="1"><g transform="translate(116.524414, 249.609432)"><g><path d="M 0.734375 -0.15625 L 0.8125 -0.15625 C 0.90625 -0.15625 0.984375 -0.1875 1.046875 -0.25 C 1.109375 -0.3125 1.164062 -0.382812 1.21875 -0.46875 C 1.269531 -0.5625 1.304688 -0.65625 1.328125 -0.75 C 1.359375 -0.851562 1.375 -0.945312 1.375 -1.03125 L 1.375 -9.78125 C 1.375 -9.851562 1.359375 -9.9375 1.328125 -10.03125 C 1.304688 -10.132812 1.269531 -10.226562 1.21875 -10.3125 C 1.164062 -10.394531 1.109375 -10.46875 1.046875 -10.53125 C 0.984375 -10.59375 0.90625 -10.625 0.8125 -10.625 L 0.734375 -10.625 L 0.734375 -10.78125 L 7.03125 -10.78125 L 7.03125 -9.265625 L 6.859375 -9.265625 C 6.835938 -9.515625 6.738281 -9.734375 6.5625 -9.921875 C 6.394531 -10.117188 6.125 -10.21875 5.75 -10.21875 L 2.46875 -10.21875 L 2.46875 -6.078125 L 5.1875 -6.078125 C 5.4375 -6.078125 5.644531 -6.148438 5.8125 -6.296875 C 5.976562 -6.453125 6.0625 -6.632812 6.0625 -6.84375 L 6.234375 -6.84375 L 6.234375 -4.8125 L 6.0625 -4.8125 C 6.0625 -5 5.976562 -5.164062 5.8125 -5.3125 C 5.65625 -5.457031 5.445312 -5.53125 5.1875 -5.53125 L 2.46875 -5.53125 L 2.46875 -0.578125 L 6.046875 -0.578125 C 6.253906 -0.578125 6.429688 -0.625 6.578125 -0.71875 C 6.734375 -0.8125 6.863281 -0.925781 6.96875 -1.0625 C 7.070312 -1.207031 7.144531 -1.359375 7.1875 -1.515625 C 7.238281 -1.671875 7.265625 -1.800781 7.265625 -1.90625 L 7.4375 -1.90625 L 7.4375 0 L 0.734375 0 Z M 0.734375 -0.15625 "/></g></g></g><g fill="#073714" fill-opacity="1"><g transform="translate(128.475575, 249.609432)"><g><path d="M 0.734375 -0.15625 L 0.8125 -0.15625 C 0.894531 -0.15625 0.96875 -0.1875 1.03125 -0.25 C 1.09375 -0.320312 1.148438 -0.398438 1.203125 -0.484375 C 1.253906 -0.578125 1.289062 -0.675781 1.3125 -0.78125 C 1.332031 -0.882812 1.34375 -0.976562 1.34375 -1.0625 L 1.34375 -9.75 C 1.34375 -9.832031 1.332031 -9.921875 1.3125 -10.015625 C 1.289062 -10.117188 1.253906 -10.210938 1.203125 -10.296875 C 1.148438 -10.390625 1.085938 -10.46875 1.015625 -10.53125 C 0.953125 -10.59375 0.875 -10.625 0.78125 -10.625 L 0.703125 -10.625 L 0.703125 -10.78125 L 3.390625 -10.78125 C 4.398438 -10.78125 5.191406 -10.554688 5.765625 -10.109375 C 6.335938 -9.671875 6.625 -9.078125 6.625 -8.328125 C 6.625 -8.015625 6.566406 -7.734375 6.453125 -7.484375 C 6.347656 -7.234375 6.207031 -7.007812 6.03125 -6.8125 C 5.863281 -6.613281 5.679688 -6.445312 5.484375 -6.3125 C 5.296875 -6.175781 5.113281 -6.066406 4.9375 -5.984375 C 5.394531 -5.890625 5.773438 -5.738281 6.078125 -5.53125 C 6.378906 -5.332031 6.625 -5.097656 6.8125 -4.828125 C 7.007812 -4.554688 7.144531 -4.269531 7.21875 -3.96875 C 7.300781 -3.664062 7.34375 -3.367188 7.34375 -3.078125 C 7.34375 -2.503906 7.238281 -2.023438 7.03125 -1.640625 C 6.820312 -1.253906 6.546875 -0.9375 6.203125 -0.6875 C 5.859375 -0.445312 5.460938 -0.269531 5.015625 -0.15625 C 4.578125 -0.0507812 4.125 0 3.65625 0 L 0.734375 0 Z M 6.234375 -2.96875 C 6.140625 -3.8125 5.851562 -4.460938 5.375 -4.921875 C 4.894531 -5.378906 4.21875 -5.609375 3.34375 -5.609375 L 2.4375 -5.609375 L 2.4375 -0.546875 L 3.390625 -0.546875 C 4.265625 -0.546875 4.957031 -0.742188 5.46875 -1.140625 C 5.976562 -1.535156 6.234375 -2.085938 6.234375 -2.796875 Z M 5.5625 -8.1875 C 5.53125 -8.820312 5.304688 -9.320312 4.890625 -9.6875 C 4.484375 -10.0625 3.9375 -10.25 3.25 -10.25 L 2.4375 -10.25 L 2.4375 -6.125 L 3.28125 -6.125 C 3.738281 -6.125 4.113281 -6.179688 4.40625 -6.296875 C 4.695312 -6.421875 4.925781 -6.578125 5.09375 -6.765625 C 5.269531 -6.960938 5.390625 -7.175781 5.453125 -7.40625 C 5.523438 -7.632812 5.5625 -7.859375 5.5625 -8.078125 Z M 5.5625 -8.1875 "/></g></g></g><g fill="#073714" fill-opacity="1"><g transform="translate(140.492128, 249.609432)"><g><path d="M 0.734375 -0.15625 L 0.8125 -0.15625 C 0.90625 -0.15625 0.984375 -0.1875 1.046875 -0.25 C 1.109375 -0.3125 1.164062 -0.382812 1.21875 -0.46875 C 1.269531 -0.5625 1.304688 -0.65625 1.328125 -0.75 C 1.359375 -0.851562 1.375 -0.945312 1.375 -1.03125 L 1.375 -9.78125 C 1.375 -9.851562 1.359375 -9.9375 1.328125 -10.03125 C 1.304688 -10.132812 1.269531 -10.226562 1.21875 -10.3125 C 1.164062 -10.394531 1.109375 -10.46875 1.046875 -10.53125 C 0.984375 -10.59375 0.90625 -10.625 0.8125 -10.625 L 0.734375 -10.625 L 0.734375 -10.78125 L 3.09375 -10.78125 L 3.09375 -10.625 L 3 -10.625 C 2.914062 -10.625 2.84375 -10.59375 2.78125 -10.53125 C 2.71875 -10.46875 2.660156 -10.394531 2.609375 -10.3125 C 2.566406 -10.226562 2.53125 -10.132812 2.5 -10.03125 C 2.476562 -9.9375 2.46875 -9.851562 2.46875 -9.78125 L 2.46875 -0.609375 L 6.046875 -0.609375 C 6.253906 -0.609375 6.429688 -0.65625 6.578125 -0.75 C 6.734375 -0.851562 6.863281 -0.976562 6.96875 -1.125 C 7.070312 -1.269531 7.144531 -1.425781 7.1875 -1.59375 C 7.238281 -1.757812 7.265625 -1.914062 7.265625 -2.0625 L 7.4375 -2.0625 L 7.4375 0 L 0.734375 0 Z M 0.734375 -0.15625 "/></g></g></g><g fill="#073714" fill-opacity="1"><g transform="translate(152.116332, 249.609432)"><g><path d="M 0.734375 -0.15625 L 0.8125 -0.15625 C 0.90625 -0.15625 0.984375 -0.1875 1.046875 -0.25 C 1.109375 -0.3125 1.164062 -0.382812 1.21875 -0.46875 C 1.269531 -0.5625 1.304688 -0.65625 1.328125 -0.75 C 1.359375 -0.851562 1.375 -0.945312 1.375 -1.03125 L 1.375 -9.78125 C 1.375 -9.851562 1.359375 -9.9375 1.328125 -10.03125 C 1.304688 -10.132812 1.269531 -10.226562 1.21875 -10.3125 C 1.164062 -10.394531 1.109375 -10.46875 1.046875 -10.53125 C 0.984375 -10.59375 0.90625 -10.625 0.8125 -10.625 L 0.734375 -10.625 L 0.734375 -10.78125 L 7.03125 -10.78125 L 7.03125 -9.265625 L 6.859375 -9.265625 C 6.835938 -9.515625 6.738281 -9.734375 6.5625 -9.921875 C 6.394531 -10.117188 6.125 -10.21875 5.75 -10.21875 L 2.46875 -10.21875 L 2.46875 -6.078125 L 5.1875 -6.078125 C 5.4375 -6.078125 5.644531 -6.148438 5.8125 -6.296875 C 5.976562 -6.453125 6.0625 -6.632812 6.0625 -6.84375 L 6.234375 -6.84375 L 6.234375 -4.8125 L 6.0625 -4.8125 C 6.0625 -5 5.976562 -5.164062 5.8125 -5.3125 C 5.65625 -5.457031 5.445312 -5.53125 5.1875 -5.53125 L 2.46875 -5.53125 L 2.46875 -0.578125 L 6.046875 -0.578125 C 6.253906 -0.578125 6.429688 -0.625 6.578125 -0.71875 C 6.734375 -0.8125 6.863281 -0.925781 6.96875 -1.0625 C 7.070312 -1.207031 7.144531 -1.359375 7.1875 -1.515625 C 7.238281 -1.671875 7.265625 -1.800781 7.265625 -1.90625 L 7.4375 -1.90625 L 7.4375 0 L 0.734375 0 Z M 0.734375 -0.15625 "/></g></g></g><g fill="#073714" fill-opacity="1"><g transform="translate(164.067494, 249.609432)"><g><path d="M 7.359375 -2.890625 C 7.359375 -2.347656 7.25 -1.882812 7.03125 -1.5 C 6.8125 -1.113281 6.53125 -0.800781 6.1875 -0.5625 C 5.84375 -0.320312 5.453125 -0.144531 5.015625 -0.03125 C 4.585938 0.0703125 4.164062 0.125 3.75 0.125 C 3.3125 0.125 2.929688 0.0820312 2.609375 0 C 2.296875 -0.0820312 2.007812 -0.164062 1.75 -0.25 C 1.570312 -0.300781 1.410156 -0.34375 1.265625 -0.375 C 1.128906 -0.414062 0.988281 -0.4375 0.84375 -0.4375 L 0.84375 -2.296875 L 1.015625 -2.296875 C 1.015625 -1.890625 1.117188 -1.5625 1.328125 -1.3125 C 1.546875 -1.070312 1.796875 -0.882812 2.078125 -0.75 C 2.359375 -0.625 2.640625 -0.539062 2.921875 -0.5 C 3.203125 -0.457031 3.410156 -0.4375 3.546875 -0.4375 C 4.015625 -0.4375 4.414062 -0.503906 4.75 -0.640625 C 5.09375 -0.773438 5.375 -0.953125 5.59375 -1.171875 C 5.8125 -1.398438 5.972656 -1.648438 6.078125 -1.921875 C 6.179688 -2.203125 6.234375 -2.484375 6.234375 -2.765625 C 6.234375 -3.117188 6.15625 -3.414062 6 -3.65625 C 5.84375 -3.90625 5.640625 -4.125 5.390625 -4.3125 C 5.148438 -4.5 4.875 -4.65625 4.5625 -4.78125 C 4.25 -4.914062 3.925781 -5.050781 3.59375 -5.1875 C 3.226562 -5.320312 2.863281 -5.460938 2.5 -5.609375 C 2.144531 -5.765625 1.820312 -5.953125 1.53125 -6.171875 C 1.25 -6.398438 1.019531 -6.671875 0.84375 -6.984375 C 0.675781 -7.296875 0.59375 -7.679688 0.59375 -8.140625 C 0.59375 -8.617188 0.679688 -9.035156 0.859375 -9.390625 C 1.046875 -9.742188 1.296875 -10.035156 1.609375 -10.265625 C 1.921875 -10.492188 2.273438 -10.664062 2.671875 -10.78125 C 3.066406 -10.894531 3.472656 -10.953125 3.890625 -10.953125 C 4.171875 -10.953125 4.4375 -10.929688 4.6875 -10.890625 C 4.9375 -10.859375 5.175781 -10.8125 5.40625 -10.75 C 5.59375 -10.707031 5.769531 -10.671875 5.9375 -10.640625 C 6.113281 -10.617188 6.285156 -10.609375 6.453125 -10.609375 L 6.453125 -8.921875 L 6.296875 -8.921875 C 6.273438 -9.492188 6.050781 -9.878906 5.625 -10.078125 C 5.195312 -10.273438 4.609375 -10.375 3.859375 -10.375 C 3.421875 -10.375 3.0625 -10.300781 2.78125 -10.15625 C 2.507812 -10.007812 2.289062 -9.828125 2.125 -9.609375 C 1.957031 -9.398438 1.84375 -9.171875 1.78125 -8.921875 C 1.726562 -8.679688 1.703125 -8.46875 1.703125 -8.28125 C 1.703125 -7.976562 1.769531 -7.71875 1.90625 -7.5 C 2.039062 -7.28125 2.222656 -7.085938 2.453125 -6.921875 C 2.679688 -6.765625 2.941406 -6.617188 3.234375 -6.484375 C 3.535156 -6.359375 3.851562 -6.234375 4.1875 -6.109375 C 4.550781 -5.972656 4.925781 -5.820312 5.3125 -5.65625 C 5.695312 -5.488281 6.035156 -5.285156 6.328125 -5.046875 C 6.628906 -4.804688 6.875 -4.507812 7.0625 -4.15625 C 7.257812 -3.8125 7.359375 -3.390625 7.359375 -2.890625 Z M 7.359375 -2.890625 "/></g></g></g><g fill="#073714" fill-opacity="1"><g transform="translate(176.100389, 249.609432)"><g/></g></g><g fill="#073714" fill-opacity="1"><g transform="translate(184.373317, 249.609432)"><g><path d="M 2.453125 -0.15625 L 2.53125 -0.15625 L 2.53125 0 L 0.71875 0 L 0.71875 -0.15625 L 0.796875 -0.15625 C 0.878906 -0.15625 0.953125 -0.1875 1.015625 -0.25 C 1.085938 -0.320312 1.144531 -0.398438 1.1875 -0.484375 C 1.238281 -0.578125 1.273438 -0.675781 1.296875 -0.78125 C 1.328125 -0.882812 1.34375 -0.976562 1.34375 -1.0625 L 1.34375 -9.78125 C 1.34375 -9.851562 1.332031 -9.9375 1.3125 -10.03125 C 1.300781 -10.132812 1.269531 -10.226562 1.21875 -10.3125 C 1.175781 -10.394531 1.117188 -10.46875 1.046875 -10.53125 C 0.972656 -10.59375 0.878906 -10.625 0.765625 -10.625 L 0.6875 -10.625 L 0.6875 -10.78125 L 2.34375 -10.78125 L 8.265625 -1.4375 L 8.265625 -9.78125 C 8.265625 -9.851562 8.25 -9.9375 8.21875 -10.03125 C 8.195312 -10.132812 8.160156 -10.226562 8.109375 -10.3125 C 8.066406 -10.394531 8.007812 -10.46875 7.9375 -10.53125 C 7.875 -10.59375 7.800781 -10.625 7.71875 -10.625 L 7.625 -10.625 L 7.625 -10.78125 L 9.46875 -10.78125 L 9.46875 -10.625 L 9.375 -10.625 C 9.289062 -10.625 9.210938 -10.59375 9.140625 -10.53125 C 9.078125 -10.46875 9.019531 -10.394531 8.96875 -10.3125 C 8.925781 -10.226562 8.894531 -10.132812 8.875 -10.03125 C 8.851562 -9.9375 8.84375 -9.851562 8.84375 -9.78125 L 8.84375 0 L 7.828125 0 L 1.90625 -9.375 L 1.90625 -1.0625 C 1.90625 -0.976562 1.914062 -0.882812 1.9375 -0.78125 C 1.96875 -0.675781 2.003906 -0.578125 2.046875 -0.484375 C 2.097656 -0.398438 2.15625 -0.320312 2.21875 -0.25 C 2.289062 -0.1875 2.367188 -0.15625 2.453125 -0.15625 Z M 2.453125 -0.15625 "/></g></g></g><g fill="#073714" fill-opacity="1"><g transform="translate(198.662203, 249.609432)"><g><path d="M 6.25 -10.953125 C 7.09375 -10.953125 7.851562 -10.800781 8.53125 -10.5 C 9.207031 -10.195312 9.78125 -9.789062 10.25 -9.28125 C 10.726562 -8.78125 11.09375 -8.191406 11.34375 -7.515625 C 11.601562 -6.847656 11.734375 -6.148438 11.734375 -5.421875 C 11.734375 -4.609375 11.582031 -3.859375 11.28125 -3.171875 C 10.988281 -2.484375 10.578125 -1.894531 10.046875 -1.40625 C 9.523438 -0.914062 8.914062 -0.53125 8.21875 -0.25 C 7.53125 0.0195312 6.796875 0.15625 6.015625 0.15625 C 5.171875 0.15625 4.414062 0.00390625 3.75 -0.296875 C 3.082031 -0.597656 2.515625 -1 2.046875 -1.5 C 1.585938 -2 1.234375 -2.578125 0.984375 -3.234375 C 0.734375 -3.890625 0.609375 -4.570312 0.609375 -5.28125 C 0.609375 -5.976562 0.734375 -6.664062 0.984375 -7.34375 C 1.234375 -8.03125 1.597656 -8.640625 2.078125 -9.171875 C 2.566406 -9.703125 3.160156 -10.128906 3.859375 -10.453125 C 4.554688 -10.785156 5.351562 -10.953125 6.25 -10.953125 Z M 6.234375 -0.40625 C 6.960938 -0.4375 7.597656 -0.601562 8.140625 -0.90625 C 8.691406 -1.207031 9.148438 -1.585938 9.515625 -2.046875 C 9.890625 -2.515625 10.164062 -3.023438 10.34375 -3.578125 C 10.53125 -4.128906 10.625 -4.679688 10.625 -5.234375 C 10.625 -5.828125 10.515625 -6.425781 10.296875 -7.03125 C 10.078125 -7.644531 9.765625 -8.203125 9.359375 -8.703125 C 8.960938 -9.203125 8.484375 -9.601562 7.921875 -9.90625 C 7.359375 -10.21875 6.726562 -10.375 6.03125 -10.375 C 5.351562 -10.375 4.75 -10.222656 4.21875 -9.921875 C 3.6875 -9.628906 3.226562 -9.25 2.84375 -8.78125 C 2.46875 -8.3125 2.179688 -7.785156 1.984375 -7.203125 C 1.796875 -6.628906 1.703125 -6.066406 1.703125 -5.515625 C 1.703125 -4.910156 1.816406 -4.304688 2.046875 -3.703125 C 2.273438 -3.097656 2.585938 -2.550781 2.984375 -2.0625 C 3.390625 -1.570312 3.867188 -1.171875 4.421875 -0.859375 C 4.972656 -0.554688 5.578125 -0.40625 6.234375 -0.40625 Z M 4.84375 -11.25 L 7.15625 -13 L 7.578125 -12.265625 L 4.890625 -11.140625 Z M 4.84375 -11.25 "/></g></g></g><g fill="#073714" fill-opacity="1"><g transform="translate(215.125328, 249.609432)"><g><path d="M 2.953125 -0.15625 L 3.046875 -0.15625 L 3.046875 0 L 0.734375 0 L 0.734375 -0.15625 L 0.8125 -0.15625 C 0.894531 -0.15625 0.96875 -0.1875 1.03125 -0.25 C 1.09375 -0.320312 1.148438 -0.398438 1.203125 -0.484375 C 1.253906 -0.578125 1.289062 -0.675781 1.3125 -0.78125 C 1.332031 -0.882812 1.34375 -0.976562 1.34375 -1.0625 L 1.34375 -9.78125 C 1.34375 -9.851562 1.332031 -9.9375 1.3125 -10.03125 C 1.289062 -10.132812 1.253906 -10.226562 1.203125 -10.3125 C 1.148438 -10.394531 1.09375 -10.46875 1.03125 -10.53125 C 0.96875 -10.59375 0.894531 -10.625 0.8125 -10.625 L 0.734375 -10.625 L 0.734375 -10.78125 L 3.578125 -10.78125 C 4.671875 -10.78125 5.515625 -10.566406 6.109375 -10.140625 C 6.703125 -9.722656 7 -9.097656 7 -8.265625 C 7 -7.859375 6.929688 -7.5 6.796875 -7.1875 C 6.660156 -6.875 6.476562 -6.601562 6.25 -6.375 C 6.019531 -6.15625 5.75 -5.976562 5.4375 -5.84375 C 5.125 -5.707031 4.796875 -5.609375 4.453125 -5.546875 L 5.625 -3.75 C 5.90625 -3.3125 6.191406 -2.878906 6.484375 -2.453125 C 6.785156 -2.035156 7.078125 -1.601562 7.359375 -1.15625 C 7.429688 -1.050781 7.515625 -0.9375 7.609375 -0.8125 C 7.703125 -0.695312 7.800781 -0.585938 7.90625 -0.484375 C 8.007812 -0.390625 8.117188 -0.3125 8.234375 -0.25 C 8.347656 -0.1875 8.460938 -0.15625 8.578125 -0.15625 L 8.578125 0 L 7.875 0 C 7.4375 0 7.078125 -0.101562 6.796875 -0.3125 C 6.523438 -0.53125 6.296875 -0.78125 6.109375 -1.0625 C 5.617188 -1.78125 5.128906 -2.507812 4.640625 -3.25 C 4.160156 -3.988281 3.679688 -4.71875 3.203125 -5.4375 C 3.085938 -5.445312 2.957031 -5.460938 2.8125 -5.484375 C 2.675781 -5.503906 2.550781 -5.523438 2.4375 -5.546875 L 2.4375 -1.0625 C 2.4375 -0.976562 2.445312 -0.882812 2.46875 -0.78125 C 2.488281 -0.675781 2.519531 -0.578125 2.5625 -0.484375 C 2.613281 -0.398438 2.671875 -0.320312 2.734375 -0.25 C 2.796875 -0.1875 2.867188 -0.15625 2.953125 -0.15625 Z M 2.4375 -10.234375 L 2.4375 -6.078125 L 2.515625 -6.078125 C 2.597656 -6.066406 2.734375 -6.054688 2.921875 -6.046875 C 3.117188 -6.046875 3.359375 -6.046875 3.640625 -6.046875 C 3.867188 -6.046875 4.109375 -6.082031 4.359375 -6.15625 C 4.617188 -6.226562 4.859375 -6.347656 5.078125 -6.515625 C 5.304688 -6.679688 5.492188 -6.898438 5.640625 -7.171875 C 5.796875 -7.441406 5.875 -7.785156 5.875 -8.203125 C 5.875 -8.617188 5.789062 -8.957031 5.625 -9.21875 C 5.46875 -9.476562 5.25 -9.679688 4.96875 -9.828125 C 4.695312 -9.984375 4.363281 -10.085938 3.96875 -10.140625 C 3.582031 -10.203125 3.15625 -10.234375 2.6875 -10.234375 Z M 2.4375 -10.234375 "/></g></g></g><g fill="#073714" fill-opacity="1"><g transform="translate(227.975624, 249.609432)"><g><path d="M 0.71875 -0.15625 L 0.796875 -0.15625 C 0.878906 -0.15625 0.953125 -0.1875 1.015625 -0.25 C 1.078125 -0.320312 1.132812 -0.398438 1.1875 -0.484375 C 1.238281 -0.578125 1.273438 -0.675781 1.296875 -0.78125 C 1.316406 -0.882812 1.328125 -0.976562 1.328125 -1.0625 L 1.328125 -9.78125 C 1.328125 -9.851562 1.316406 -9.9375 1.296875 -10.03125 C 1.273438 -10.132812 1.238281 -10.226562 1.1875 -10.3125 C 1.144531 -10.394531 1.09375 -10.46875 1.03125 -10.53125 C 0.96875 -10.59375 0.890625 -10.625 0.796875 -10.625 L 0.71875 -10.625 L 0.71875 -10.78125 L 3.875 -10.78125 C 4.738281 -10.78125 5.507812 -10.628906 6.1875 -10.328125 C 6.875 -10.035156 7.453125 -9.632812 7.921875 -9.125 C 8.398438 -8.625 8.765625 -8.046875 9.015625 -7.390625 C 9.265625 -6.734375 9.390625 -6.050781 9.390625 -5.34375 C 9.390625 -4.675781 9.269531 -4.023438 9.03125 -3.390625 C 8.789062 -2.753906 8.429688 -2.1875 7.953125 -1.6875 C 7.472656 -1.1875 6.875 -0.78125 6.15625 -0.46875 C 5.4375 -0.15625 4.601562 0 3.65625 0 L 0.71875 0 Z M 8.28125 -5.09375 C 8.28125 -5.789062 8.15625 -6.453125 7.90625 -7.078125 C 7.65625 -7.703125 7.300781 -8.242188 6.84375 -8.703125 C 6.394531 -9.160156 5.863281 -9.523438 5.25 -9.796875 C 4.632812 -10.078125 3.96875 -10.21875 3.25 -10.21875 L 2.421875 -10.21875 L 2.421875 -0.578125 L 3.28125 -0.578125 C 3.875 -0.578125 4.46875 -0.664062 5.0625 -0.84375 C 5.65625 -1.019531 6.191406 -1.296875 6.671875 -1.671875 C 7.148438 -2.046875 7.535156 -2.515625 7.828125 -3.078125 C 8.128906 -3.648438 8.28125 -4.320312 8.28125 -5.09375 Z M 8.28125 -5.09375 "/></g></g></g><g fill="#073714" fill-opacity="1"><g transform="translate(242.068335, 249.609432)"><g><path d="M 0.796875 -10.78125 L 3.140625 -10.78125 L 3.140625 -10.625 L 3.0625 -10.625 C 2.976562 -10.625 2.90625 -10.59375 2.84375 -10.53125 C 2.78125 -10.46875 2.722656 -10.394531 2.671875 -10.3125 C 2.628906 -10.238281 2.59375 -10.148438 2.5625 -10.046875 C 2.539062 -9.941406 2.53125 -9.851562 2.53125 -9.78125 L 2.53125 -1.0625 C 2.53125 -0.976562 2.539062 -0.882812 2.5625 -0.78125 C 2.582031 -0.675781 2.617188 -0.578125 2.671875 -0.484375 C 2.722656 -0.398438 2.773438 -0.320312 2.828125 -0.25 C 2.890625 -0.1875 2.96875 -0.15625 3.0625 -0.15625 L 3.140625 -0.15625 L 3.140625 0 L 0.796875 0 L 0.796875 -0.15625 L 0.875 -0.15625 C 0.96875 -0.15625 1.046875 -0.1875 1.109375 -0.25 C 1.171875 -0.3125 1.226562 -0.390625 1.28125 -0.484375 C 1.332031 -0.578125 1.367188 -0.675781 1.390625 -0.78125 C 1.410156 -0.882812 1.421875 -0.976562 1.421875 -1.0625 L 1.421875 -9.78125 C 1.421875 -9.851562 1.410156 -9.9375 1.390625 -10.03125 C 1.367188 -10.132812 1.332031 -10.226562 1.28125 -10.3125 C 1.226562 -10.394531 1.171875 -10.46875 1.109375 -10.53125 C 1.046875 -10.59375 0.96875 -10.625 0.875 -10.625 L 0.796875 -10.625 Z M 0.796875 -10.78125 "/></g></g></g><g fill="#073714" fill-opacity="1"><g transform="translate(250.06336, 249.609432)"><g><path d="M 6.484375 -10.359375 C 5.679688 -10.359375 4.984375 -10.210938 4.390625 -9.921875 C 3.796875 -9.640625 3.300781 -9.265625 2.90625 -8.796875 C 2.519531 -8.335938 2.226562 -7.816406 2.03125 -7.234375 C 1.84375 -6.660156 1.75 -6.09375 1.75 -5.53125 C 1.75 -4.882812 1.875 -4.253906 2.125 -3.640625 C 2.375 -3.023438 2.71875 -2.476562 3.15625 -2 C 3.601562 -1.53125 4.117188 -1.148438 4.703125 -0.859375 C 5.296875 -0.566406 5.9375 -0.421875 6.625 -0.421875 C 6.8125 -0.421875 7.039062 -0.441406 7.3125 -0.484375 C 7.582031 -0.535156 7.847656 -0.625 8.109375 -0.75 C 8.367188 -0.875 8.609375 -1.050781 8.828125 -1.28125 C 9.054688 -1.507812 9.226562 -1.804688 9.34375 -2.171875 L 9.515625 -2.171875 L 9.515625 -0.359375 C 9.347656 -0.359375 9.175781 -0.335938 9 -0.296875 C 8.820312 -0.253906 8.625 -0.203125 8.40625 -0.140625 C 8.113281 -0.0664062 7.796875 0 7.453125 0.0625 C 7.117188 0.125 6.757812 0.15625 6.375 0.15625 C 5.425781 0.15625 4.59375 -0.00390625 3.875 -0.328125 C 3.15625 -0.648438 2.554688 -1.070312 2.078125 -1.59375 C 1.597656 -2.125 1.238281 -2.71875 1 -3.375 C 0.757812 -4.03125 0.640625 -4.695312 0.640625 -5.375 C 0.640625 -6.050781 0.757812 -6.722656 1 -7.390625 C 1.238281 -8.054688 1.601562 -8.648438 2.09375 -9.171875 C 2.582031 -9.703125 3.195312 -10.128906 3.9375 -10.453125 C 4.675781 -10.785156 5.546875 -10.953125 6.546875 -10.953125 C 6.910156 -10.953125 7.234375 -10.914062 7.515625 -10.84375 C 7.804688 -10.78125 8.066406 -10.71875 8.296875 -10.65625 C 8.460938 -10.601562 8.613281 -10.5625 8.75 -10.53125 C 8.882812 -10.507812 9.019531 -10.5 9.15625 -10.5 L 9.15625 -8.671875 L 8.984375 -8.671875 C 8.921875 -9.015625 8.800781 -9.296875 8.625 -9.515625 C 8.457031 -9.742188 8.253906 -9.914062 8.015625 -10.03125 C 7.785156 -10.15625 7.535156 -10.238281 7.265625 -10.28125 C 6.992188 -10.332031 6.734375 -10.359375 6.484375 -10.359375 Z M 6.484375 -10.359375 "/></g></g></g><g fill="#073714" fill-opacity="1"><g transform="translate(264.270512, 249.609432)"><g><path d="M 6.25 -10.953125 C 7.09375 -10.953125 7.851562 -10.800781 8.53125 -10.5 C 9.207031 -10.195312 9.78125 -9.789062 10.25 -9.28125 C 10.726562 -8.78125 11.09375 -8.191406 11.34375 -7.515625 C 11.601562 -6.847656 11.734375 -6.148438 11.734375 -5.421875 C 11.734375 -4.609375 11.582031 -3.859375 11.28125 -3.171875 C 10.988281 -2.484375 10.578125 -1.894531 10.046875 -1.40625 C 9.523438 -0.914062 8.914062 -0.53125 8.21875 -0.25 C 7.53125 0.0195312 6.796875 0.15625 6.015625 0.15625 C 5.171875 0.15625 4.414062 0.00390625 3.75 -0.296875 C 3.082031 -0.597656 2.515625 -1 2.046875 -1.5 C 1.585938 -2 1.234375 -2.578125 0.984375 -3.234375 C 0.734375 -3.890625 0.609375 -4.570312 0.609375 -5.28125 C 0.609375 -5.976562 0.734375 -6.664062 0.984375 -7.34375 C 1.234375 -8.03125 1.597656 -8.640625 2.078125 -9.171875 C 2.566406 -9.703125 3.160156 -10.128906 3.859375 -10.453125 C 4.554688 -10.785156 5.351562 -10.953125 6.25 -10.953125 Z M 6.234375 -0.40625 C 6.960938 -0.4375 7.597656 -0.601562 8.140625 -0.90625 C 8.691406 -1.207031 9.148438 -1.585938 9.515625 -2.046875 C 9.890625 -2.515625 10.164062 -3.023438 10.34375 -3.578125 C 10.53125 -4.128906 10.625 -4.679688 10.625 -5.234375 C 10.625 -5.828125 10.515625 -6.425781 10.296875 -7.03125 C 10.078125 -7.644531 9.765625 -8.203125 9.359375 -8.703125 C 8.960938 -9.203125 8.484375 -9.601562 7.921875 -9.90625 C 7.359375 -10.21875 6.726562 -10.375 6.03125 -10.375 C 5.351562 -10.375 4.75 -10.222656 4.21875 -9.921875 C 3.6875 -9.628906 3.226562 -9.25 2.84375 -8.78125 C 2.46875 -8.3125 2.179688 -7.785156 1.984375 -7.203125 C 1.796875 -6.628906 1.703125 -6.066406 1.703125 -5.515625 C 1.703125 -4.910156 1.816406 -4.304688 2.046875 -3.703125 C 2.273438 -3.097656 2.585938 -2.550781 2.984375 -2.0625 C 3.390625 -1.570312 3.867188 -1.171875 4.421875 -0.859375 C 4.972656 -0.554688 5.578125 -0.40625 6.234375 -0.40625 Z M 6.234375 -0.40625 "/></g></g></g><g fill="#073714" fill-opacity="1"><g transform="translate(280.733638, 249.609432)"><g><path d="M 7.359375 -2.890625 C 7.359375 -2.347656 7.25 -1.882812 7.03125 -1.5 C 6.8125 -1.113281 6.53125 -0.800781 6.1875 -0.5625 C 5.84375 -0.320312 5.453125 -0.144531 5.015625 -0.03125 C 4.585938 0.0703125 4.164062 0.125 3.75 0.125 C 3.3125 0.125 2.929688 0.0820312 2.609375 0 C 2.296875 -0.0820312 2.007812 -0.164062 1.75 -0.25 C 1.570312 -0.300781 1.410156 -0.34375 1.265625 -0.375 C 1.128906 -0.414062 0.988281 -0.4375 0.84375 -0.4375 L 0.84375 -2.296875 L 1.015625 -2.296875 C 1.015625 -1.890625 1.117188 -1.5625 1.328125 -1.3125 C 1.546875 -1.070312 1.796875 -0.882812 2.078125 -0.75 C 2.359375 -0.625 2.640625 -0.539062 2.921875 -0.5 C 3.203125 -0.457031 3.410156 -0.4375 3.546875 -0.4375 C 4.015625 -0.4375 4.414062 -0.503906 4.75 -0.640625 C 5.09375 -0.773438 5.375 -0.953125 5.59375 -1.171875 C 5.8125 -1.398438 5.972656 -1.648438 6.078125 -1.921875 C 6.179688 -2.203125 6.234375 -2.484375 6.234375 -2.765625 C 6.234375 -3.117188 6.15625 -3.414062 6 -3.65625 C 5.84375 -3.90625 5.640625 -4.125 5.390625 -4.3125 C 5.148438 -4.5 4.875 -4.65625 4.5625 -4.78125 C 4.25 -4.914062 3.925781 -5.050781 3.59375 -5.1875 C 3.226562 -5.320312 2.863281 -5.460938 2.5 -5.609375 C 2.144531 -5.765625 1.820312 -5.953125 1.53125 -6.171875 C 1.25 -6.398438 1.019531 -6.671875 0.84375 -6.984375 C 0.675781 -7.296875 0.59375 -7.679688 0.59375 -8.140625 C 0.59375 -8.617188 0.679688 -9.035156 0.859375 -9.390625 C 1.046875 -9.742188 1.296875 -10.035156 1.609375 -10.265625 C 1.921875 -10.492188 2.273438 -10.664062 2.671875 -10.78125 C 3.066406 -10.894531 3.472656 -10.953125 3.890625 -10.953125 C 4.171875 -10.953125 4.4375 -10.929688 4.6875 -10.890625 C 4.9375 -10.859375 5.175781 -10.8125 5.40625 -10.75 C 5.59375 -10.707031 5.769531 -10.671875 5.9375 -10.640625 C 6.113281 -10.617188 6.285156 -10.609375 6.453125 -10.609375 L 6.453125 -8.921875 L 6.296875 -8.921875 C 6.273438 -9.492188 6.050781 -9.878906 5.625 -10.078125 C 5.195312 -10.273438 4.609375 -10.375 3.859375 -10.375 C 3.421875 -10.375 3.0625 -10.300781 2.78125 -10.15625 C 2.507812 -10.007812 2.289062 -9.828125 2.125 -9.609375 C 1.957031 -9.398438 1.84375 -9.171875 1.78125 -8.921875 C 1.726562 -8.679688 1.703125 -8.46875 1.703125 -8.28125 C 1.703125 -7.976562 1.769531 -7.71875 1.90625 -7.5 C 2.039062 -7.28125 2.222656 -7.085938 2.453125 -6.921875 C 2.679688 -6.765625 2.941406 -6.617188 3.234375 -6.484375 C 3.535156 -6.359375 3.851562 -6.234375 4.1875 -6.109375 C 4.550781 -5.972656 4.925781 -5.820312 5.3125 -5.65625 C 5.695312 -5.488281 6.035156 -5.285156 6.328125 -5.046875 C 6.628906 -4.804688 6.875 -4.507812 7.0625 -4.15625 C 7.257812 -3.8125 7.359375 -3.390625 7.359375 -2.890625 Z M 7.359375 -2.890625 "/></g></g></g><g fill="#073714" fill-opacity="1"><g transform="translate(59.071509, 228.456607)"><g><path d="M 12.265625 -19.578125 C 10.742188 -19.578125 9.421875 -19.304688 8.296875 -18.765625 C 7.171875 -18.222656 6.238281 -17.515625 5.5 -16.640625 C 4.757812 -15.765625 4.207031 -14.78125 3.84375 -13.6875 C 3.488281 -12.59375 3.3125 -11.507812 3.3125 -10.4375 C 3.3125 -9.226562 3.546875 -8.039062 4.015625 -6.875 C 4.484375 -5.707031 5.132812 -4.675781 5.96875 -3.78125 C 6.8125 -2.882812 7.785156 -2.160156 8.890625 -1.609375 C 10.003906 -1.066406 11.210938 -0.796875 12.515625 -0.796875 C 12.878906 -0.796875 13.3125 -0.835938 13.8125 -0.921875 C 14.320312 -1.003906 14.820312 -1.164062 15.3125 -1.40625 C 15.8125 -1.644531 16.269531 -1.976562 16.6875 -2.40625 C 17.113281 -2.84375 17.441406 -3.410156 17.671875 -4.109375 L 17.984375 -4.109375 L 17.984375 -0.671875 C 17.671875 -0.671875 17.34375 -0.628906 17 -0.546875 C 16.664062 -0.472656 16.289062 -0.382812 15.875 -0.28125 C 15.34375 -0.132812 14.75 0 14.09375 0.125 C 13.445312 0.25 12.765625 0.3125 12.046875 0.3125 C 10.253906 0.3125 8.675781 0.00390625 7.3125 -0.609375 C 5.957031 -1.234375 4.828125 -2.039062 3.921875 -3.03125 C 3.015625 -4.019531 2.332031 -5.132812 1.875 -6.375 C 1.425781 -7.625 1.203125 -8.882812 1.203125 -10.15625 C 1.203125 -11.4375 1.425781 -12.703125 1.875 -13.953125 C 2.332031 -15.210938 3.023438 -16.34375 3.953125 -17.34375 C 4.878906 -18.34375 6.039062 -19.148438 7.4375 -19.765625 C 8.84375 -20.390625 10.492188 -20.703125 12.390625 -20.703125 C 13.066406 -20.703125 13.675781 -20.640625 14.21875 -20.515625 C 14.769531 -20.390625 15.257812 -20.265625 15.6875 -20.140625 C 16 -20.035156 16.28125 -19.957031 16.53125 -19.90625 C 16.789062 -19.851562 17.046875 -19.828125 17.296875 -19.828125 L 17.296875 -16.40625 L 16.984375 -16.40625 C 16.859375 -17.039062 16.628906 -17.566406 16.296875 -17.984375 C 15.972656 -18.410156 15.585938 -18.738281 15.140625 -18.96875 C 14.703125 -19.195312 14.226562 -19.351562 13.71875 -19.4375 C 13.21875 -19.53125 12.734375 -19.578125 12.265625 -19.578125 Z M 12.265625 -19.578125 "/></g></g></g><g fill="#073714" fill-opacity="1"><g transform="translate(86.092405, 228.456607)"><g><path d="M 13.1875 -0.3125 L 13.34375 -0.3125 C 13.84375 -0.3125 14.09375 -0.535156 14.09375 -0.984375 C 14.09375 -1.148438 14.0625 -1.328125 14 -1.515625 L 11.21875 -9.015625 L 5.8125 -9.015625 L 3.125 -1.640625 C 3.0625 -1.472656 3.03125 -1.316406 3.03125 -1.171875 C 3.03125 -0.898438 3.097656 -0.6875 3.234375 -0.53125 C 3.378906 -0.382812 3.535156 -0.3125 3.703125 -0.3125 L 3.859375 -0.3125 L 3.859375 0 L 0.4375 0 L 0.4375 -0.3125 L 0.59375 -0.3125 C 0.851562 -0.3125 1.113281 -0.46875 1.375 -0.78125 C 1.632812 -1.101562 1.847656 -1.484375 2.015625 -1.921875 L 9.078125 -20.765625 L 16 -2.09375 C 16.144531 -1.6875 16.34375 -1.285156 16.59375 -0.890625 C 16.851562 -0.503906 17.191406 -0.3125 17.609375 -0.3125 L 17.765625 -0.3125 L 17.765625 0 L 13.1875 0 Z M 6.109375 -10.078125 L 10.875 -10.078125 L 8.5 -16.53125 Z M 6.109375 -10.078125 "/></g></g></g><g fill="#073714" fill-opacity="1"><g transform="translate(112.094295, 228.456607)"><g><path d="M 13.90625 -5.46875 C 13.90625 -4.4375 13.695312 -3.554688 13.28125 -2.828125 C 12.875 -2.097656 12.34375 -1.503906 11.6875 -1.046875 C 11.039062 -0.597656 10.3125 -0.269531 9.5 -0.0625 C 8.6875 0.144531 7.878906 0.25 7.078125 0.25 C 6.253906 0.25 5.539062 0.164062 4.9375 0 C 4.34375 -0.164062 3.800781 -0.320312 3.3125 -0.46875 C 2.976562 -0.570312 2.675781 -0.65625 2.40625 -0.71875 C 2.144531 -0.789062 1.878906 -0.828125 1.609375 -0.828125 L 1.609375 -4.359375 L 1.921875 -4.359375 C 1.921875 -3.578125 2.117188 -2.953125 2.515625 -2.484375 C 2.921875 -2.023438 3.390625 -1.671875 3.921875 -1.421875 C 4.453125 -1.171875 4.984375 -1.007812 5.515625 -0.9375 C 6.054688 -0.863281 6.453125 -0.828125 6.703125 -0.828125 C 7.585938 -0.828125 8.347656 -0.957031 8.984375 -1.21875 C 9.628906 -1.476562 10.15625 -1.816406 10.5625 -2.234375 C 10.976562 -2.660156 11.28125 -3.128906 11.46875 -3.640625 C 11.664062 -4.160156 11.765625 -4.6875 11.765625 -5.21875 C 11.765625 -5.894531 11.617188 -6.460938 11.328125 -6.921875 C 11.046875 -7.390625 10.671875 -7.800781 10.203125 -8.15625 C 9.742188 -8.507812 9.210938 -8.804688 8.609375 -9.046875 C 8.015625 -9.296875 7.410156 -9.546875 6.796875 -9.796875 C 6.097656 -10.054688 5.40625 -10.332031 4.71875 -10.625 C 4.039062 -10.914062 3.429688 -11.269531 2.890625 -11.6875 C 2.359375 -12.113281 1.925781 -12.617188 1.59375 -13.203125 C 1.269531 -13.796875 1.109375 -14.523438 1.109375 -15.390625 C 1.109375 -16.296875 1.28125 -17.082031 1.625 -17.75 C 1.976562 -18.414062 2.445312 -18.960938 3.03125 -19.390625 C 3.625 -19.828125 4.296875 -20.15625 5.046875 -20.375 C 5.796875 -20.59375 6.566406 -20.703125 7.359375 -20.703125 C 7.890625 -20.703125 8.390625 -20.664062 8.859375 -20.59375 C 9.335938 -20.519531 9.789062 -20.429688 10.21875 -20.328125 C 10.570312 -20.242188 10.910156 -20.175781 11.234375 -20.125 C 11.566406 -20.070312 11.890625 -20.046875 12.203125 -20.046875 L 12.203125 -16.859375 L 11.890625 -16.859375 C 11.847656 -17.929688 11.425781 -18.65625 10.625 -19.03125 C 9.820312 -19.414062 8.710938 -19.609375 7.296875 -19.609375 C 6.460938 -19.609375 5.785156 -19.46875 5.265625 -19.1875 C 4.742188 -18.914062 4.328125 -18.578125 4.015625 -18.171875 C 3.703125 -17.773438 3.488281 -17.34375 3.375 -16.875 C 3.269531 -16.414062 3.21875 -16.007812 3.21875 -15.65625 C 3.21875 -15.082031 3.34375 -14.585938 3.59375 -14.171875 C 3.851562 -13.765625 4.195312 -13.40625 4.625 -13.09375 C 5.0625 -12.789062 5.5625 -12.515625 6.125 -12.265625 C 6.695312 -12.015625 7.289062 -11.773438 7.90625 -11.546875 C 8.601562 -11.285156 9.3125 -11 10.03125 -10.6875 C 10.757812 -10.375 11.40625 -9.988281 11.96875 -9.53125 C 12.53125 -9.082031 12.992188 -8.53125 13.359375 -7.875 C 13.722656 -7.21875 13.90625 -6.414062 13.90625 -5.46875 Z M 13.90625 -5.46875 "/></g></g></g><g fill="#073714" fill-opacity="1"><g transform="translate(135.008306, 228.456607)"><g><path d="M 13.1875 -0.3125 L 13.34375 -0.3125 C 13.84375 -0.3125 14.09375 -0.535156 14.09375 -0.984375 C 14.09375 -1.148438 14.0625 -1.328125 14 -1.515625 L 11.21875 -9.015625 L 5.8125 -9.015625 L 3.125 -1.640625 C 3.0625 -1.472656 3.03125 -1.316406 3.03125 -1.171875 C 3.03125 -0.898438 3.097656 -0.6875 3.234375 -0.53125 C 3.378906 -0.382812 3.535156 -0.3125 3.703125 -0.3125 L 3.859375 -0.3125 L 3.859375 0 L 0.4375 0 L 0.4375 -0.3125 L 0.59375 -0.3125 C 0.851562 -0.3125 1.113281 -0.46875 1.375 -0.78125 C 1.632812 -1.101562 1.847656 -1.484375 2.015625 -1.921875 L 9.078125 -20.765625 L 16 -2.09375 C 16.144531 -1.6875 16.34375 -1.285156 16.59375 -0.890625 C 16.851562 -0.503906 17.191406 -0.3125 17.609375 -0.3125 L 17.765625 -0.3125 L 17.765625 0 L 13.1875 0 Z M 6.109375 -10.078125 L 10.875 -10.078125 L 8.5 -16.53125 Z M 6.109375 -10.078125 "/></g></g></g><g fill="#073714" fill-opacity="1"><g transform="translate(161.010196, 228.456607)"><g/></g></g><g fill="#073714" fill-opacity="1"><g transform="translate(176.822073, 228.456607)"><g><path d="M 5.6875 -0.3125 L 5.84375 -0.3125 L 5.84375 0 L 1.421875 0 L 1.421875 -0.3125 L 1.578125 -0.3125 C 1.742188 -0.3125 1.882812 -0.367188 2 -0.484375 C 2.125 -0.597656 2.234375 -0.734375 2.328125 -0.890625 C 2.421875 -1.054688 2.488281 -1.234375 2.53125 -1.421875 C 2.570312 -1.609375 2.59375 -1.785156 2.59375 -1.953125 L 2.59375 -18.46875 C 2.59375 -18.613281 2.570312 -18.78125 2.53125 -18.96875 C 2.488281 -19.15625 2.425781 -19.328125 2.34375 -19.484375 C 2.257812 -19.648438 2.148438 -19.789062 2.015625 -19.90625 C 1.890625 -20.019531 1.742188 -20.078125 1.578125 -20.078125 L 1.421875 -20.078125 L 1.421875 -20.390625 L 13.28125 -20.390625 L 13.28125 -17.515625 L 12.96875 -17.515625 C 12.96875 -17.984375 12.804688 -18.398438 12.484375 -18.765625 C 12.171875 -19.128906 11.675781 -19.3125 11 -19.3125 L 4.671875 -19.3125 L 4.671875 -11.484375 L 9.796875 -11.484375 C 10.265625 -11.484375 10.65625 -11.628906 10.96875 -11.921875 C 11.289062 -12.210938 11.453125 -12.550781 11.453125 -12.9375 L 11.765625 -12.9375 L 11.765625 -9.078125 L 11.453125 -9.078125 C 11.453125 -9.453125 11.296875 -9.769531 10.984375 -10.03125 C 10.679688 -10.300781 10.285156 -10.4375 9.796875 -10.4375 L 4.671875 -10.4375 L 4.671875 -1.953125 C 4.671875 -1.785156 4.6875 -1.609375 4.71875 -1.421875 C 4.757812 -1.234375 4.828125 -1.054688 4.921875 -0.890625 C 5.015625 -0.734375 5.125 -0.597656 5.25 -0.484375 C 5.375 -0.367188 5.519531 -0.3125 5.6875 -0.3125 Z M 5.6875 -0.3125 "/></g></g></g><g fill="#073714" fill-opacity="1"><g transform="translate(198.80972, 228.456607)"><g><path d="M 13.1875 -0.3125 L 13.34375 -0.3125 C 13.84375 -0.3125 14.09375 -0.535156 14.09375 -0.984375 C 14.09375 -1.148438 14.0625 -1.328125 14 -1.515625 L 11.21875 -9.015625 L 5.8125 -9.015625 L 3.125 -1.640625 C 3.0625 -1.472656 3.03125 -1.316406 3.03125 -1.171875 C 3.03125 -0.898438 3.097656 -0.6875 3.234375 -0.53125 C 3.378906 -0.382812 3.535156 -0.3125 3.703125 -0.3125 L 3.859375 -0.3125 L 3.859375 0 L 0.4375 0 L 0.4375 -0.3125 L 0.59375 -0.3125 C 0.851562 -0.3125 1.113281 -0.46875 1.375 -0.78125 C 1.632812 -1.101562 1.847656 -1.484375 2.015625 -1.921875 L 9.078125 -20.765625 L 16 -2.09375 C 16.144531 -1.6875 16.34375 -1.285156 16.59375 -0.890625 C 16.851562 -0.503906 17.191406 -0.3125 17.609375 -0.3125 L 17.765625 -0.3125 L 17.765625 0 L 13.1875 0 Z M 6.109375 -10.078125 L 10.875 -10.078125 L 8.5 -16.53125 Z M 6.109375 -10.078125 "/></g></g></g><g fill="#073714" fill-opacity="1"><g transform="translate(224.81161, 228.456607)"><g><path d="M 1.390625 -20.390625 L 5.78125 -20.390625 L 5.78125 -20.078125 L 5.625 -20.078125 C 5.457031 -20.078125 5.3125 -20.019531 5.1875 -19.90625 C 5.0625 -19.789062 4.953125 -19.648438 4.859375 -19.484375 C 4.765625 -19.328125 4.695312 -19.15625 4.65625 -18.96875 C 4.625 -18.78125 4.609375 -18.613281 4.609375 -18.46875 L 4.609375 -6.265625 C 4.609375 -5.460938 4.6875 -4.722656 4.84375 -4.046875 C 5.007812 -3.367188 5.285156 -2.78125 5.671875 -2.28125 C 6.066406 -1.789062 6.582031 -1.40625 7.21875 -1.125 C 7.863281 -0.84375 8.648438 -0.703125 9.578125 -0.703125 C 10.609375 -0.703125 11.429688 -0.867188 12.046875 -1.203125 C 12.660156 -1.535156 13.132812 -1.960938 13.46875 -2.484375 C 13.800781 -3.015625 14.015625 -3.609375 14.109375 -4.265625 C 14.210938 -4.921875 14.265625 -5.566406 14.265625 -6.203125 L 14.265625 -18.46875 C 14.265625 -18.613281 14.242188 -18.78125 14.203125 -18.96875 C 14.160156 -19.15625 14.09375 -19.328125 14 -19.484375 C 13.914062 -19.648438 13.8125 -19.789062 13.6875 -19.90625 C 13.5625 -20.019531 13.425781 -20.078125 13.28125 -20.078125 L 13.125 -20.078125 L 13.125 -20.390625 L 16.5 -20.390625 L 16.5 -20.078125 L 16.34375 -20.078125 C 16.175781 -20.078125 16.035156 -20.019531 15.921875 -19.90625 C 15.804688 -19.789062 15.703125 -19.648438 15.609375 -19.484375 C 15.515625 -19.328125 15.445312 -19.15625 15.40625 -18.96875 C 15.375 -18.78125 15.359375 -18.613281 15.359375 -18.46875 L 15.359375 -6.296875 C 15.359375 -4.960938 15.191406 -3.867188 14.859375 -3.015625 C 14.523438 -2.160156 14.070312 -1.484375 13.5 -0.984375 C 12.925781 -0.492188 12.25 -0.15625 11.46875 0.03125 C 10.695312 0.21875 9.878906 0.3125 9.015625 0.3125 C 8.085938 0.3125 7.226562 0.210938 6.4375 0.015625 C 5.644531 -0.179688 4.957031 -0.523438 4.375 -1.015625 C 3.800781 -1.515625 3.347656 -2.191406 3.015625 -3.046875 C 2.691406 -3.898438 2.53125 -4.972656 2.53125 -6.265625 L 2.53125 -18.46875 C 2.53125 -18.613281 2.507812 -18.78125 2.46875 -18.96875 C 2.425781 -19.15625 2.359375 -19.328125 2.265625 -19.484375 C 2.171875 -19.648438 2.0625 -19.789062 1.9375 -19.90625 C 1.820312 -20.019531 1.691406 -20.078125 1.546875 -20.078125 L 1.390625 -20.078125 Z M 1.390625 -20.390625 "/></g></g></g><g fill="#073714" fill-opacity="1"><g transform="translate(250.628232, 228.456607)"><g><path d="M 14.671875 -10.75 L 19.09375 -10.75 L 19.09375 -10.4375 L 18.9375 -10.4375 C 18.769531 -10.4375 18.625 -10.378906 18.5 -10.265625 C 18.375 -10.148438 18.269531 -10.007812 18.1875 -9.84375 C 18.113281 -9.6875 18.050781 -9.515625 18 -9.328125 C 17.945312 -9.140625 17.921875 -8.972656 17.921875 -8.828125 L 17.921875 -0.5625 C 17.546875 -0.414062 17.117188 -0.289062 16.640625 -0.1875 C 16.171875 -0.0820312 15.675781 0.00390625 15.15625 0.078125 C 14.644531 0.148438 14.117188 0.207031 13.578125 0.25 C 13.046875 0.289062 12.554688 0.3125 12.109375 0.3125 C 10.253906 0.3125 8.632812 0.00390625 7.25 -0.609375 C 5.875 -1.234375 4.734375 -2.046875 3.828125 -3.046875 C 2.921875 -4.046875 2.242188 -5.171875 1.796875 -6.421875 C 1.359375 -7.679688 1.140625 -8.945312 1.140625 -10.21875 C 1.140625 -11.5 1.359375 -12.765625 1.796875 -14.015625 C 2.242188 -15.273438 2.925781 -16.398438 3.84375 -17.390625 C 4.757812 -18.378906 5.910156 -19.175781 7.296875 -19.78125 C 8.691406 -20.394531 10.347656 -20.703125 12.265625 -20.703125 C 12.984375 -20.703125 13.648438 -20.640625 14.265625 -20.515625 C 14.890625 -20.390625 15.4375 -20.273438 15.90625 -20.171875 C 16.175781 -20.109375 16.40625 -20.050781 16.59375 -20 C 16.789062 -19.945312 16.960938 -19.921875 17.109375 -19.921875 L 17.390625 -19.921875 L 17.390625 -16.65625 L 17.078125 -16.65625 C 16.953125 -17.289062 16.707031 -17.800781 16.34375 -18.1875 C 15.988281 -18.582031 15.570312 -18.882812 15.09375 -19.09375 C 14.625 -19.300781 14.125 -19.4375 13.59375 -19.5 C 13.070312 -19.570312 12.585938 -19.609375 12.140625 -19.609375 C 10.597656 -19.609375 9.257812 -19.335938 8.125 -18.796875 C 6.988281 -18.253906 6.0625 -17.550781 5.34375 -16.6875 C 4.625 -15.820312 4.085938 -14.847656 3.734375 -13.765625 C 3.390625 -12.679688 3.21875 -11.601562 3.21875 -10.53125 C 3.21875 -9.332031 3.441406 -8.148438 3.890625 -6.984375 C 4.347656 -5.828125 4.988281 -4.789062 5.8125 -3.875 C 6.632812 -2.957031 7.625 -2.210938 8.78125 -1.640625 C 9.945312 -1.078125 11.242188 -0.796875 12.671875 -0.796875 C 13.054688 -0.796875 13.535156 -0.84375 14.109375 -0.9375 C 14.691406 -1.03125 15.269531 -1.242188 15.84375 -1.578125 L 15.84375 -8.828125 C 15.84375 -8.972656 15.820312 -9.140625 15.78125 -9.328125 C 15.738281 -9.515625 15.671875 -9.6875 15.578125 -9.84375 C 15.492188 -10.007812 15.390625 -10.148438 15.265625 -10.265625 C 15.140625 -10.378906 14.992188 -10.4375 14.828125 -10.4375 L 14.671875 -10.4375 Z M 14.671875 -10.75 "/></g></g></g><g fill="#073714" fill-opacity="1"><g transform="translate(278.698997, 228.456607)"><g><path d="M 1.390625 -0.3125 L 1.546875 -0.3125 C 1.710938 -0.3125 1.851562 -0.367188 1.96875 -0.484375 C 2.09375 -0.597656 2.203125 -0.734375 2.296875 -0.890625 C 2.390625 -1.054688 2.460938 -1.234375 2.515625 -1.421875 C 2.566406 -1.609375 2.59375 -1.785156 2.59375 -1.953125 L 2.59375 -18.46875 C 2.59375 -18.613281 2.566406 -18.78125 2.515625 -18.96875 C 2.460938 -19.15625 2.390625 -19.328125 2.296875 -19.484375 C 2.203125 -19.648438 2.09375 -19.789062 1.96875 -19.90625 C 1.851562 -20.019531 1.710938 -20.078125 1.546875 -20.078125 L 1.390625 -20.078125 L 1.390625 -20.390625 L 13.28125 -20.390625 L 13.28125 -17.515625 L 12.96875 -17.515625 C 12.925781 -17.984375 12.738281 -18.398438 12.40625 -18.765625 C 12.082031 -19.128906 11.570312 -19.3125 10.875 -19.3125 L 4.671875 -19.3125 L 4.671875 -11.484375 L 9.796875 -11.484375 C 10.265625 -11.484375 10.65625 -11.628906 10.96875 -11.921875 C 11.289062 -12.210938 11.453125 -12.550781 11.453125 -12.9375 L 11.765625 -12.9375 L 11.765625 -9.078125 L 11.453125 -9.078125 C 11.453125 -9.453125 11.296875 -9.769531 10.984375 -10.03125 C 10.679688 -10.300781 10.285156 -10.4375 9.796875 -10.4375 L 4.671875 -10.4375 L 4.671875 -1.078125 L 11.421875 -1.078125 C 11.816406 -1.078125 12.15625 -1.171875 12.4375 -1.359375 C 12.726562 -1.546875 12.972656 -1.765625 13.171875 -2.015625 C 13.367188 -2.273438 13.515625 -2.554688 13.609375 -2.859375 C 13.703125 -3.160156 13.75 -3.410156 13.75 -3.609375 L 14.0625 -3.609375 L 14.0625 0 L 1.390625 0 Z M 1.390625 -0.3125 "/></g></g></g><g fill="#073714" fill-opacity="1"><g transform="translate(301.458616, 228.456607)"><g><path d="M 9.203125 -0.3125 L 9.359375 -0.3125 L 9.359375 0 L 4.96875 0 L 4.96875 -0.3125 L 5.125 -0.3125 C 5.289062 -0.3125 5.4375 -0.367188 5.5625 -0.484375 C 5.6875 -0.609375 5.796875 -0.753906 5.890625 -0.921875 C 5.984375 -1.085938 6.046875 -1.269531 6.078125 -1.46875 C 6.117188 -1.664062 6.140625 -1.847656 6.140625 -2.015625 L 6.140625 -19.25 L 2.5625 -19.25 C 2.226562 -19.25 1.9375 -19.175781 1.6875 -19.03125 C 1.445312 -18.882812 1.242188 -18.703125 1.078125 -18.484375 C 0.910156 -18.265625 0.785156 -18.023438 0.703125 -17.765625 C 0.628906 -17.515625 0.59375 -17.265625 0.59375 -17.015625 L 0.28125 -17.015625 L 0.28125 -20.390625 L 14.140625 -20.390625 L 14.140625 -17.015625 L 13.84375 -17.015625 C 13.84375 -17.265625 13.800781 -17.515625 13.71875 -17.765625 C 13.632812 -18.023438 13.507812 -18.265625 13.34375 -18.484375 C 13.175781 -18.703125 12.96875 -18.882812 12.71875 -19.03125 C 12.476562 -19.175781 12.191406 -19.25 11.859375 -19.25 L 8.21875 -19.25 L 8.21875 -2.015625 C 8.21875 -1.847656 8.238281 -1.664062 8.28125 -1.46875 C 8.320312 -1.269531 8.390625 -1.085938 8.484375 -0.921875 C 8.578125 -0.753906 8.675781 -0.609375 8.78125 -0.484375 C 8.894531 -0.367188 9.035156 -0.3125 9.203125 -0.3125 Z M 9.203125 -0.3125 "/></g></g></g><g clip-path="url(#569f28a194)"><path fill="#073714" d="M 181.5625 192.085938 C 148.566406 192.324219 119.804688 194.40625 102.675781 197.476562 C 111.921875 192.5625 143.3125 188.84375 181.425781 188.503906 Z M 187.496094 188.46875 C 228.304688 188.46875 262.59375 192.289062 272.316406 197.476562 C 254.167969 194.234375 222.949219 192.085938 187.496094 192.085938 L 186.304688 192.085938 L 187.257812 188.503906 L 187.496094 188.503906 Z M 187.496094 188.46875 " fill-opacity="1" fill-rule="evenodd"/></g><g clip-path="url(#1d586adac2)"><path fill="#073714" d="M 181.5625 165.8125 L 208.925781 155.714844 L 178.421875 163.59375 L 179.378906 183.078125 L 182.722656 182.292969 L 183.199219 196.929688 L 183.574219 197.03125 L 187.804688 181.097656 L 199.679688 178.265625 L 204.695312 186.832031 L 205.070312 186.695312 L 203.429688 177.378906 L 212.609375 175.195312 L 220.660156 191.675781 L 220.96875 191.574219 L 216.839844 174.207031 C 212.4375 165.507812 217.933594 136.128906 214.996094 127.703125 C 212.40625 120.195312 199.710938 143.191406 191.726562 125.144531 C 195.070312 134.765625 197.9375 136.539062 206.5 133.195312 C 208.003906 132.617188 211.585938 131.351562 213.496094 130.464844 C 214.589844 145.339844 212.269531 157.453125 213.394531 171.136719 L 202.953125 174.171875 L 202.953125 174.136719 L 202.542969 174.273438 L 182.074219 180.210938 Z M 154.710938 177.753906 L 154.949219 177.789062 C 154.128906 177.210938 154.09375 175.640625 154.128906 174.378906 L 154.230469 157.625 C 180.914062 153.1875 196.199219 148.445312 186.097656 129.613281 C 205.71875 151.3125 171.9375 155.851562 156.859375 160.457031 L 156.6875 175.671875 L 177.398438 182.429688 L 157.746094 178.472656 L 155.152344 190.34375 L 154.777344 190.242188 Z M 154.710938 177.753906 " fill-opacity="1" fill-rule="evenodd"/></g></svg>